<svg width="14" height="14" viewBox="0 0 14 14" fill="none" xmlns="http://www.w3.org/2000/svg">
<path d="M7.84785 9.09728C7.82729 9.07692 7.79953 9.0655 7.77061 9.0655C7.74168 9.0655 7.71392 9.07692 7.69336 9.09728L6.10469 10.6859C5.36914 11.4215 4.12773 11.4994 3.31562 10.6859C2.50215 9.87247 2.58008 8.63243 3.31562 7.89689L4.9043 6.30822C4.94668 6.26583 4.94668 6.19611 4.9043 6.15372L4.36016 5.60958C4.3396 5.58923 4.31184 5.57781 4.28291 5.57781C4.25398 5.57781 4.22622 5.58923 4.20566 5.60958L2.61699 7.19825C1.46035 8.35489 1.46035 10.2266 2.61699 11.3818C3.77363 12.5371 5.64531 12.5385 6.80059 11.3818L8.38926 9.79318C8.43164 9.75079 8.43164 9.68107 8.38926 9.63868L7.84785 9.09728ZM11.3834 2.61681C10.2268 1.46017 8.35508 1.46017 7.1998 2.61681L5.60977 4.20548C5.58941 4.22604 5.57799 4.2538 5.57799 4.28273C5.57799 4.31166 5.58941 4.33942 5.60977 4.35997L6.15254 4.90275C6.19492 4.94513 6.26465 4.94513 6.30703 4.90275L7.8957 3.31407C8.63125 2.57853 9.87266 2.5006 10.6848 3.31407C11.4982 4.12755 11.4203 5.36759 10.6848 6.10314L9.09609 7.69181C9.07574 7.71237 9.06432 7.74013 9.06432 7.76905C9.06432 7.79798 9.07574 7.82574 9.09609 7.8463L9.64023 8.39044C9.68262 8.43282 9.75234 8.43282 9.79473 8.39044L11.3834 6.80177C12.5387 5.64513 12.5387 3.77345 11.3834 2.61681ZM8.34141 5.09005C8.32085 5.0697 8.29309 5.05828 8.26416 5.05828C8.23523 5.05828 8.20747 5.0697 8.18691 5.09005L5.09023 8.18536C5.06988 8.20592 5.05846 8.23368 5.05846 8.26261C5.05846 8.29154 5.06988 8.3193 5.09023 8.33986L5.63164 8.88126C5.67402 8.92364 5.74375 8.92364 5.78613 8.88126L8.88144 5.78595C8.92383 5.74357 8.92383 5.67384 8.88144 5.63146L8.34141 5.09005Z" fill="#333333"/>
</svg>
