<svg width="13" height="13" viewBox="0 0 13 13" fill="none" xmlns="http://www.w3.org/2000/svg">
<g clip-path="url(#clip0_449_441)">
<path fill-rule="evenodd" clip-rule="evenodd" d="M12.8513 0.0917908C12.8978 0.129926 12.9353 0.177915 12.961 0.232292C12.9867 0.286669 13 0.346078 13 0.406228V11.7812C12.9999 11.8751 12.9674 11.9661 12.9078 12.0387C12.8483 12.1112 12.7654 12.161 12.6734 12.1794L8.61087 12.9919C8.55831 13.0023 8.50419 13.0023 8.45163 12.9919L4.46875 12.1956L0.485875 12.9919C0.42696 13.0036 0.366166 13.0022 0.307873 12.9876C0.24958 12.9731 0.19524 12.9458 0.148768 12.9077C0.102296 12.8696 0.0648484 12.8217 0.0391233 12.7674C0.0133983 12.7131 3.62803e-05 12.6538 0 12.5937L0 1.21873C5.66979e-05 1.12485 0.0326268 1.03388 0.0921728 0.961302C0.151719 0.888721 0.234565 0.839004 0.326625 0.820603L4.38912 0.00810334C4.44169 -0.00240288 4.49581 -0.00240288 4.54838 0.00810334L8.53125 0.804353L12.5141 0.00810334C12.573 -0.0037463 12.6338 -0.00238657 12.6921 0.0120846C12.7504 0.0265558 12.8048 0.0537781 12.8513 0.0917908ZM8.125 1.55185L4.875 0.901853V11.4481L8.125 12.0981V1.55185ZM8.9375 12.0981L12.1875 11.4481V0.901853L8.9375 1.55185V12.0981ZM4.0625 11.4481V0.901853L0.8125 1.55185V12.0981L4.0625 11.4481Z" fill="#333333"/>
</g>
<defs>
<clipPath id="clip0_449_441">
<rect width="13" height="13" fill="white"/>
</clipPath>
</defs>
</svg>
