<svg width="15" height="15" viewBox="0 0 15 15" fill="none" xmlns="http://www.w3.org/2000/svg">
<path d="M7.5 0.375001C4.46594 0.375001 1.92884 2.25125 0.894531 4.90234L1.98941 5.34766C2.8545 3.13 4.95281 1.5625 7.5 1.5625C9.42375 1.5625 11.1421 2.50656 12.2132 3.9375H9.875V5.125H14.0312V0.968751H12.8438V2.80581C12.1786 2.04213 11.3574 1.42997 10.4356 1.01064C9.51377 0.59131 8.51273 0.374556 7.5 0.375001ZM13.01 9.65234C12.1455 11.87 10.0472 13.4375 7.5 13.4375C5.55487 13.4375 3.84428 12.4804 2.76781 11.0625H5.125V9.875H0.96875V14.0313H2.15625V12.1942C3.45656 13.6667 5.35953 14.625 7.5 14.625C10.5341 14.625 13.0712 12.7488 14.1055 10.0977L13.0106 9.65234H13.01Z" fill="#333333"/>
</svg>
