<svg width="18" height="17" viewBox="0 0 18 17" fill="none" xmlns="http://www.w3.org/2000/svg">
<path d="M16.3125 14.6551L12.0645 10.6431C13.0853 9.48565 13.5943 8.00108 13.4857 6.49821C13.3771 4.99534 12.6592 3.58988 11.4813 2.5742C10.3034 1.55851 8.75627 1.01081 7.1617 1.04503C5.56713 1.07925 4.04792 1.69275 2.9201 2.75792C1.79228 3.82308 1.14269 5.25789 1.10646 6.76387C1.07023 8.26985 1.65015 9.73104 2.72558 10.8435C3.80101 11.9559 5.28914 12.634 6.88042 12.7366C8.47169 12.8391 10.0436 12.3584 11.2691 11.3943L15.5171 15.4063L16.3125 14.6551ZM2.24997 6.90627C2.24997 5.96062 2.54688 5.03622 3.10316 4.24995C3.65943 3.46367 4.45009 2.85085 5.37514 2.48897C6.30019 2.12709 7.31809 2.0324 8.30012 2.21689C9.28215 2.40137 10.1842 2.85674 10.8922 3.52541C11.6002 4.19408 12.0824 5.04602 12.2777 5.97349C12.473 6.90096 12.3728 7.86231 11.9896 8.73597C11.6064 9.60963 10.9576 10.3564 10.125 10.8817C9.29252 11.4071 8.31374 11.6875 7.31247 11.6875C5.97027 11.6861 4.68347 11.1819 3.73439 10.2856C2.78531 9.38921 2.25146 8.1739 2.24997 6.90627Z" fill="black"/>
</svg>
