<svg width="17" height="17" viewBox="0 0 17 17" fill="none" xmlns="http://www.w3.org/2000/svg">
<path d="M9.13697 8.49745L13.9208 3.70897C14.0052 3.62416 14.0525 3.50936 14.0524 3.38971C14.0524 3.27006 14.0049 3.15532 13.9203 3.07062C13.7512 2.90232 13.4533 2.90147 13.2824 3.07147L8.4999 7.85995L3.71568 3.0702C3.54568 2.90232 3.24775 2.90317 3.0786 3.07105C3.03662 3.11286 3.00338 3.16262 2.98083 3.21742C2.95828 3.27222 2.94688 3.33097 2.94728 3.39022C2.94728 3.51092 2.99403 3.62397 3.0786 3.7077L7.8624 8.49702L3.07903 13.2868C2.99461 13.3717 2.94734 13.4867 2.94758 13.6064C2.94782 13.7262 2.99555 13.8409 3.0803 13.9255C3.16233 14.0067 3.27835 14.0535 3.3982 14.0535H3.40075C3.52103 14.053 3.63705 14.0059 3.71738 13.9238L8.4999 9.13537L13.2841 13.9251C13.3687 14.0093 13.4817 14.056 13.6016 14.056C13.6609 14.0562 13.7196 14.0446 13.7744 14.022C13.8291 13.9994 13.8789 13.9662 13.9208 13.9243C13.9627 13.8824 13.9959 13.8326 14.0185 13.7779C14.0411 13.7231 14.0527 13.6644 14.0525 13.6051C14.0525 13.4848 14.0058 13.3713 13.9208 13.2876L9.13697 8.49745Z" fill="#333333"/>
</svg>
